<svg width="301" height="593" viewBox="0 0 301 593" fill="none" xmlns="http://www.w3.org/2000/svg">
<path d="M3.25514 64.57L1.88022 63.7542L2.54532 65.208L59.0453 188.708L59.1861 189.016L59.5241 188.999L59.5 188.5C59.5241 188.999 59.5242 188.999 59.5245 188.999L59.5257 188.999L59.5299 188.999L59.5466 188.998L59.6118 188.995C59.6692 188.992 59.7545 188.987 59.8661 188.981C60.0895 188.969 60.4188 188.95 60.8436 188.923C61.693 188.868 62.9243 188.783 64.4538 188.656C67.5125 188.403 71.7654 187.986 76.5428 187.332C86.0836 186.027 97.7695 183.77 106.206 179.956C121.81 172.9 131.676 166.745 142.391 153.312C147.861 146.454 159.79 127.368 164.804 109.636C167.676 99.482 168.097 89.7864 168.386 83.1329L168.387 83.1205C168.484 80.8724 168.567 78.9882 168.721 77.5418C168.798 76.8193 168.891 76.2217 169.009 75.7518C169.129 75.2721 169.263 74.9737 169.392 74.8101C170.972 72.8124 171.872 71.8289 172.746 71.2215C173.608 70.622 174.467 70.3714 176.063 69.9148L176.064 69.9146C176.887 69.6791 177.89 69.3922 179.156 68.9749C181.931 68.0608 185.722 68.0523 188.869 68.2884C190.432 68.4056 191.818 68.5816 192.814 68.7283C193.311 68.8016 193.71 68.8675 193.985 68.915C194.122 68.9387 194.227 68.9578 194.299 68.9709L194.379 68.9859L194.399 68.9897L194.403 68.9906L194.404 68.9908L194.405 68.9908L195.575 69.2181L194.917 68.2241L150.917 1.7241L150.477 1.0596L150.07 1.74452L107.57 73.2445L108.29 73.9066L108.291 73.9069L108.291 73.9068L108.291 73.9064L108.294 73.9043L108.307 73.8953L108.359 73.859C108.405 73.8268 108.473 73.7792 108.562 73.7182C108.741 73.5961 109.002 73.4205 109.33 73.208C109.988 72.7826 110.912 72.2105 111.981 71.6235C114.136 70.4399 116.812 69.2331 119.052 68.9973C122.06 68.6807 124.534 68.9545 126.837 69.7708C129.145 70.5892 131.31 71.963 133.685 73.8884C137.56 77.0297 139.288 80.3795 139.925 84.259C140.568 88.1791 140.103 92.6468 139.535 98.0499L139.535 98.052C139.355 99.7619 139.166 101.562 139.002 103.457C137.591 119.721 129.238 130.689 117.649 142.144C110.7 149.013 99.9119 153.983 90.8095 157.24C86.2669 158.866 82.1614 160.059 79.1918 160.846C77.7072 161.239 76.5072 161.531 75.679 161.724C75.3037 161.811 75.0048 161.878 74.7905 161.926L61.9902 133.371C61.989 133.357 61.9877 133.342 61.9862 133.325C61.9789 133.24 61.9687 133.114 61.9571 132.952C61.9338 132.626 61.9052 132.155 61.8835 131.571C61.8403 130.404 61.8256 128.794 61.9394 127.022C62.1689 123.444 62.9155 119.332 64.8935 116.808C66.6374 114.584 69.9018 112.874 72.8094 111.712C74.2504 111.136 75.5794 110.704 76.5483 110.416C77.0324 110.272 77.4259 110.164 77.6976 110.093C77.8334 110.057 77.9387 110.03 78.0096 110.012C78.045 110.004 78.0718 109.997 78.0896 109.993L78.1093 109.988L78.114 109.987L78.115 109.987L78.1151 109.987L78.1151 109.987L79.3198 109.702L78.2551 109.07L3.25514 64.57ZM244 201V200.5H243.5H60.5H60V201V228V228.5H60.5H243.5H244V228V201ZM55.5 259.5V259H55H16H15.5V259.5V429.5V429.667L15.6 429.8L54.6 481.8L55.5 483V481.5V409.161L100.5 451.715V540.5V540.676L100.611 540.814L140.111 589.814L141 590.917V589.5V434V433.799L140.861 433.655L87.2024 377.511L140.85 324.857L141 324.71V324.5V259.5V259H140.5H101H100.5V259.5V307.79L55.5 351.811V259.5ZM161 259V259.5V300V300.5H161.5H243V416.837L204.5 469.47V417V416.5H204H161.5H161V417V589.5V590.943L161.893 589.809L287.893 429.809L288 429.673V429.5V259.5V259H287.5H161.5H161ZM246.024 187.999L246.336 187.984L246.459 187.698L298.459 67.1981L299.062 65.8019L297.748 66.5681L225.748 108.568L224.86 109.086L225.816 109.465L225.816 109.465L225.817 109.465L225.821 109.467L225.84 109.474L225.915 109.505C225.981 109.532 226.079 109.572 226.206 109.626C226.459 109.733 226.825 109.892 227.276 110.098C228.179 110.51 229.416 111.11 230.755 111.86C233.454 113.371 236.49 115.449 238.087 117.783C239.613 120.01 240.475 123.415 240.951 126.324C241.186 127.768 241.324 129.068 241.403 130.008C241.442 130.478 241.466 130.856 241.481 131.117C241.488 131.247 241.493 131.348 241.496 131.416L241.496 131.418L229.684 162.424C229.583 162.402 229.465 162.377 229.33 162.348C228.831 162.241 228.108 162.081 227.208 161.873C225.408 161.456 222.906 160.844 220.096 160.062C214.465 158.495 207.637 156.258 202.741 153.562C196.099 149.905 189.019 143.205 183.579 137.385C180.864 134.481 178.567 131.807 176.949 129.859C176.14 128.886 175.501 128.094 175.065 127.545C174.847 127.271 174.679 127.058 174.566 126.914C174.51 126.842 174.467 126.787 174.439 126.75L174.407 126.709L174.399 126.698L174.397 126.696L174.397 126.695C174.396 126.695 174.396 126.695 174 127L174.396 126.695L173.893 126.041L173.546 126.79L161.046 153.79L160.9 154.105L161.145 154.352L161.5 154C161.145 154.352 161.145 154.352 161.145 154.352L161.146 154.353L161.149 154.356L161.162 154.369L161.211 154.418C161.254 154.461 161.318 154.525 161.402 154.608C161.57 154.775 161.818 155.02 162.141 155.334C162.786 155.962 163.727 156.865 164.914 157.97C167.287 160.179 170.642 163.192 174.57 166.413C182.415 172.845 192.595 180.142 201.83 183.47C210.031 186.426 221.095 187.552 230.072 187.946C234.568 188.143 238.554 188.156 241.416 188.12C242.848 188.102 243.999 188.072 244.792 188.047C245.189 188.034 245.496 188.022 245.705 188.013C245.809 188.009 245.889 188.006 245.942 188.003L246.003 188L246.019 188L246.023 187.999L246.024 187.999C246.024 187.999 246.024 187.999 246 187.5L246.024 187.999Z" fill="black" stroke="black"/>
</svg>
