<svg width="301" height="593" viewBox="0 0 301 593" fill="none" xmlns="http://www.w3.org/2000/svg">
<mask id="path-1-outside-1_12_55" maskUnits="userSpaceOnUse" x="0" y="0" width="301" height="593" fill="black">
<rect fill="white" width="301" height="593"/>
<path fill-rule="evenodd" clip-rule="evenodd" d="M78 109.5L3 65L59.5 188.5C59.5 188.5 89.2668 187.066 106 179.5C121.561 172.465 131.351 166.351 142 153C147.44 146.18 159.332 127.152 164.323 109.5C167.179 99.402 167.598 89.754 167.887 83.0988C168.082 78.6148 168.218 75.4893 169 74.5C172.151 70.5137 172.768 70.3375 175.925 69.4341L175.926 69.434C176.748 69.1987 177.743 68.9141 179 68.5C184.749 66.606 194.5 68.5 194.5 68.5L150.5 2L108 73.5C108 73.5 114.307 68.994 119 68.5C125.141 67.8536 129.203 69.6117 134 73.5C141.941 79.9369 141.163 87.337 140.032 98.1021C139.853 99.8132 139.664 101.609 139.5 103.5C138.073 119.943 129.616 131.018 118 142.5C103.941 156.397 74.5 162.5 74.5 162.5L61.5 133.5C61.5 133.5 60.341 121.806 64.5 116.5C68.1637 111.826 78 109.5 78 109.5ZM60.5 201H243.5V228H60.5V201ZM16 259.5H55V353L101 308V259.5H140.5V324.5L86.5 377.5L140.5 434V589.5L101 540.5V451.5L55 408V481.5L16 429.5V259.5ZM161.5 300V259.5H287.5V429.5L161.5 589.5V417H204V471L243.5 417V300H161.5ZM298 67L246 187.5C246 187.5 218.25 188.856 202 183C183.699 176.405 161.5 154 161.5 154L174 127C174 127 189.07 146.605 202.5 154C212.399 159.45 230 163 230 163L242 131.5C242 131.5 241.684 122.15 238.5 117.5C235.165 112.629 226 109 226 109L298 67Z"/>
</mask>
<path fill-rule="evenodd" clip-rule="evenodd" d="M78 109.5L3 65L59.5 188.5C59.5 188.5 89.2668 187.066 106 179.5C121.561 172.465 131.351 166.351 142 153C147.44 146.18 159.332 127.152 164.323 109.5C167.179 99.402 167.598 89.754 167.887 83.0988C168.082 78.6148 168.218 75.4893 169 74.5C172.151 70.5137 172.768 70.3375 175.925 69.4341L175.926 69.434C176.748 69.1987 177.743 68.9141 179 68.5C184.749 66.606 194.5 68.5 194.5 68.5L150.5 2L108 73.5C108 73.5 114.307 68.994 119 68.5C125.141 67.8536 129.203 69.6117 134 73.5C141.941 79.9369 141.163 87.337 140.032 98.1021C139.853 99.8132 139.664 101.609 139.5 103.5C138.073 119.943 129.616 131.018 118 142.5C103.941 156.397 74.5 162.5 74.5 162.5L61.5 133.5C61.5 133.5 60.341 121.806 64.5 116.5C68.1637 111.826 78 109.5 78 109.5ZM60.5 201H243.5V228H60.5V201ZM16 259.5H55V353L101 308V259.5H140.5V324.5L86.5 377.5L140.5 434V589.5L101 540.5V451.5L55 408V481.5L16 429.5V259.5ZM161.5 300V259.5H287.5V429.5L161.5 589.5V417H204V471L243.5 417V300H161.5ZM298 67L246 187.5C246 187.5 218.25 188.856 202 183C183.699 176.405 161.5 154 161.5 154L174 127C174 127 189.07 146.605 202.5 154C212.399 159.45 230 163 230 163L242 131.5C242 131.5 241.684 122.15 238.5 117.5C235.165 112.629 226 109 226 109L298 67Z" fill="white"/>
<path d="M3 65L3.51027 64.14L0.76045 62.5084L2.09064 65.416L3 65ZM78 109.5L78.2301 110.473L80.6396 109.903L78.5103 108.64L78 109.5ZM59.5 188.5L58.5906 188.916L58.8722 189.531L59.5481 189.499L59.5 188.5ZM106 179.5L106.412 180.411L106.412 180.411L106 179.5ZM142 153L142.782 153.624L142.782 153.624L142 153ZM164.323 109.5L163.361 109.228L163.361 109.228L164.323 109.5ZM167.887 83.0988L166.888 83.0554L166.888 83.0554L167.887 83.0988ZM169 74.5L168.216 73.8798L168.216 73.8798L169 74.5ZM175.925 69.4341L176.2 70.3955L176.221 70.3896L176.242 70.3828L175.925 69.4341ZM175.926 69.434L175.651 68.4726L175.63 68.4785L175.609 68.4853L175.926 69.434ZM179 68.5L179.313 69.4498L179.313 69.4498L179 68.5ZM194.5 68.5L194.309 69.4817L196.649 69.9362L195.334 67.9482L194.5 68.5ZM150.5 2L151.334 1.4482L150.455 0.119198L149.64 1.48904L150.5 2ZM108 73.5L107.14 72.989L108.581 74.3137L108 73.5ZM119 68.5L118.895 67.5055L118.895 67.5055L119 68.5ZM134 73.5L133.37 74.2768L133.37 74.2768L134 73.5ZM140.032 98.1021L141.027 98.2066L141.027 98.2066L140.032 98.1021ZM139.5 103.5L140.496 103.586L140.496 103.586L139.5 103.5ZM118 142.5L118.703 143.211L118.703 143.211L118 142.5ZM74.5 162.5L73.5875 162.909L73.9162 163.642L74.703 163.479L74.5 162.5ZM61.5 133.5L60.5049 133.599L60.5209 133.761L60.5875 133.909L61.5 133.5ZM64.5 116.5L63.713 115.883L63.713 115.883L64.5 116.5ZM243.5 201H244.5V200H243.5V201ZM60.5 201V200H59.5V201H60.5ZM243.5 228V229H244.5V228H243.5ZM60.5 228H59.5V229H60.5V228ZM55 259.5H56V258.5H55V259.5ZM16 259.5V258.5H15V259.5H16ZM55 353H54V355.377L55.6993 353.715L55 353ZM101 308L101.699 308.715L102 308.421V308H101ZM101 259.5V258.5H100V259.5H101ZM140.5 259.5H141.5V258.5H140.5V259.5ZM140.5 324.5L141.2 325.214L141.5 324.92V324.5H140.5ZM86.5 377.5L85.7995 376.786L85.0953 377.478L85.7771 378.191L86.5 377.5ZM140.5 434H141.5V433.599L141.223 433.309L140.5 434ZM140.5 589.5L139.721 590.128L141.5 592.334V589.5H140.5ZM101 540.5H100V540.853L100.221 541.128L101 540.5ZM101 451.5H102V451.069L101.687 450.773L101 451.5ZM55 408L55.6871 407.273L54 405.678V408H55ZM55 481.5L54.2 482.1L56 484.5V481.5H55ZM16 429.5H15V429.833L15.2 430.1L16 429.5ZM161.5 259.5V258.5H160.5V259.5H161.5ZM161.5 300H160.5V301H161.5V300ZM287.5 259.5H288.5V258.5H287.5V259.5ZM287.5 429.5L288.286 430.119L288.5 429.846V429.5H287.5ZM161.5 589.5H160.5V592.386L162.286 590.119L161.5 589.5ZM161.5 417V416H160.5V417H161.5ZM204 417H205V416H204V417ZM204 471H203V474.061L204.807 471.59L204 471ZM243.5 417L244.307 417.59L244.5 417.327V417H243.5ZM243.5 300H244.5V299H243.5V300ZM246 187.5L246.049 188.499L246.671 188.468L246.918 187.896L246 187.5ZM298 67L298.918 67.3962L300.123 64.6038L297.496 66.1362L298 67ZM202 183L201.661 183.941L201.661 183.941L202 183ZM161.5 154L160.593 153.58L160.301 154.21L160.79 154.704L161.5 154ZM174 127L174.793 126.391L173.786 125.081L173.093 126.58L174 127ZM202.5 154L202.982 153.124L202.982 153.124L202.5 154ZM230 163L229.802 163.98L230.633 164.148L230.934 163.356L230 163ZM242 131.5L242.934 131.856L243.006 131.668L242.999 131.466L242 131.5ZM238.5 117.5L239.325 116.935L239.325 116.935L238.5 117.5ZM226 109L225.496 108.136L223.72 109.172L225.632 109.93L226 109ZM2.48973 65.86L77.4897 110.36L78.5103 108.64L3.51027 64.14L2.48973 65.86ZM60.4094 188.084L3.90936 64.584L2.09064 65.416L58.5906 188.916L60.4094 188.084ZM105.588 178.589C97.3612 182.308 85.8581 184.544 76.3395 185.846C71.5944 186.495 67.3689 186.909 64.33 187.161C62.8109 187.287 61.5891 187.372 60.7481 187.426C60.3276 187.452 60.0024 187.471 59.7828 187.484C59.6731 187.49 59.5898 187.494 59.5342 187.497C59.5064 187.498 59.4855 187.499 59.4717 187.5C59.4648 187.501 59.4597 187.501 59.4564 187.501C59.4547 187.501 59.4535 187.501 59.4528 187.501C59.4524 187.501 59.4522 187.501 59.452 187.501C59.4519 187.501 59.4519 187.501 59.5 188.5C59.5481 189.499 59.5484 189.499 59.5487 189.499C59.549 189.499 59.5494 189.499 59.5499 189.499C59.551 189.499 59.5525 189.499 59.5545 189.499C59.5584 189.498 59.5641 189.498 59.5716 189.498C59.5865 189.497 59.6086 189.496 59.6377 189.494C59.6957 189.491 59.7816 189.487 59.8939 189.48C60.1186 189.468 60.4492 189.449 60.8754 189.422C61.7276 189.367 62.9621 189.281 64.495 189.154C67.5603 188.9 71.8223 188.483 76.6106 187.828C86.1588 186.522 97.9057 184.257 106.412 180.411L105.588 178.589ZM141.218 152.376C130.701 165.562 121.062 171.593 105.588 178.589L106.412 180.411C122.06 173.336 132.001 167.139 142.782 153.624L141.218 152.376ZM163.361 109.228C158.415 126.72 146.599 145.63 141.218 152.376L142.782 153.624C148.281 146.729 160.249 127.584 165.286 109.772L163.361 109.228ZM166.888 83.0554C166.599 89.7136 166.181 99.2547 163.361 109.228L165.286 109.772C168.176 99.5492 168.597 89.7945 168.886 83.1422L166.888 83.0554ZM168.216 73.8798C167.888 74.2945 167.691 74.8404 167.554 75.3875C167.412 75.9544 167.309 76.6299 167.229 77.383C167.069 78.8869 166.985 80.8256 166.888 83.0554L168.886 83.1422C168.984 80.8879 169.066 79.022 169.218 77.5948C169.294 76.8824 169.384 76.3108 169.494 75.8733C169.608 75.416 169.721 75.2001 169.784 75.1202L168.216 73.8798ZM175.65 68.4726C174.105 68.9146 172.993 69.223 171.89 69.9898C170.809 70.7409 169.784 71.8958 168.216 73.8798L169.784 75.1202C171.367 73.118 172.226 72.1915 173.031 71.6321C173.813 71.0884 174.587 70.8569 176.2 70.3955L175.65 68.4726ZM175.609 68.4853L175.609 68.4854L176.242 70.3828L176.242 70.3827L175.609 68.4853ZM178.687 67.5502C177.45 67.9577 176.472 68.2377 175.651 68.4726L176.201 70.3955C177.024 70.1598 178.036 69.8706 179.313 69.4498L178.687 67.5502ZM194.5 68.5C194.691 67.5183 194.69 67.5183 194.69 67.5183C194.69 67.5182 194.69 67.5182 194.69 67.5181C194.689 67.5181 194.689 67.5179 194.688 67.5178C194.686 67.5175 194.684 67.5171 194.681 67.5165C194.676 67.5155 194.668 67.514 194.658 67.5121C194.638 67.5082 194.608 67.5027 194.57 67.4957C194.494 67.4817 194.383 67.4617 194.24 67.437C193.955 67.3876 193.544 67.3197 193.032 67.2443C192.011 67.0938 190.588 66.9131 188.981 66.7926C185.805 66.5544 181.761 66.5375 178.687 67.5502L179.313 69.4498C181.988 68.5685 185.694 68.5516 188.831 68.787C190.38 68.9031 191.754 69.0776 192.741 69.223C193.234 69.2956 193.629 69.3608 193.899 69.4077C194.034 69.4311 194.139 69.4499 194.208 69.4627C194.243 69.4691 194.269 69.4739 194.286 69.4772C194.294 69.4788 194.301 69.48 194.305 69.4807C194.307 69.4811 194.308 69.4814 194.309 69.4815C194.309 69.4816 194.309 69.4817 194.309 69.4817C194.31 69.4817 194.309 69.4817 194.309 69.4817C194.309 69.4817 194.309 69.4817 194.5 68.5ZM149.666 2.5518L193.666 69.0518L195.334 67.9482L151.334 1.4482L149.666 2.5518ZM108.86 74.011L151.36 2.51096L149.64 1.48904L107.14 72.989L108.86 74.011ZM118.895 67.5055C116.338 67.7747 113.439 69.1112 111.259 70.3088C110.151 70.9172 109.195 71.5089 108.515 71.9487C108.175 72.1688 107.904 72.3515 107.716 72.4799C107.622 72.5441 107.549 72.5948 107.499 72.6299C107.474 72.6475 107.454 72.6611 107.441 72.6706C107.434 72.6753 107.429 72.679 107.425 72.6817C107.423 72.683 107.422 72.684 107.421 72.6848C107.42 72.6852 107.42 72.6855 107.419 72.6858C107.419 72.6859 107.419 72.686 107.419 72.6861C107.419 72.6862 107.419 72.6863 108 73.5C108.581 74.3137 108.581 74.3137 108.581 74.3138C108.581 74.3138 108.581 74.3138 108.581 74.3138C108.581 74.3138 108.581 74.3137 108.582 74.3135C108.582 74.3132 108.583 74.3126 108.584 74.3118C108.586 74.3101 108.59 74.3073 108.596 74.3035C108.606 74.2959 108.623 74.2842 108.645 74.2686C108.69 74.2375 108.757 74.1909 108.845 74.1309C109.02 74.011 109.278 73.8378 109.602 73.6277C110.252 73.2072 111.166 72.6416 112.222 72.0617C114.368 70.8828 116.969 69.7193 119.105 69.4945L118.895 67.5055ZM134.63 72.7232C132.185 70.7416 129.87 69.2544 127.338 68.357C124.795 67.4553 122.091 67.1691 118.895 67.5055L119.105 69.4945C122.05 69.1845 124.448 69.4542 126.67 70.242C128.904 71.0341 131.018 72.3702 133.37 74.2768L134.63 72.7232ZM141.027 98.2066C141.588 92.865 142.088 88.1764 141.405 84.0159C140.708 79.774 138.791 76.096 134.63 72.7232L133.37 74.2768C137.15 77.3409 138.814 80.5813 139.431 84.34C140.062 88.18 139.608 92.5741 139.038 97.9976L141.027 98.2066ZM140.496 103.586C140.659 101.706 140.847 99.9187 141.027 98.2066L139.038 97.9976C138.858 99.7076 138.669 101.512 138.504 103.414L140.496 103.586ZM118.703 143.211C130.373 131.676 139.039 120.389 140.496 103.586L138.504 103.414C137.108 119.498 128.859 130.36 117.297 141.789L118.703 143.211ZM74.5 162.5C74.703 163.479 74.7033 163.479 74.7037 163.479C74.704 163.479 74.7045 163.479 74.705 163.479C74.7061 163.479 74.7077 163.478 74.7097 163.478C74.7138 163.477 74.7196 163.476 74.7272 163.474C74.7423 163.471 74.7645 163.466 74.7935 163.46C74.8515 163.448 74.937 163.429 75.0485 163.405C75.2716 163.356 75.5989 163.283 76.0195 163.184C76.8607 162.988 78.0754 162.693 79.5759 162.296C82.576 161.501 86.7234 160.296 91.3149 158.653C100.463 155.379 111.511 150.32 118.703 143.211L117.297 141.789C110.43 148.577 99.7283 153.518 90.641 156.77C86.1148 158.389 82.0232 159.579 79.0638 160.363C77.5845 160.754 76.3893 161.045 75.5655 161.237C75.1536 161.333 74.8347 161.404 74.6196 161.451C74.5121 161.475 74.4305 161.492 74.3763 161.504C74.3492 161.51 74.3289 161.514 74.3156 161.517C74.309 161.518 74.3041 161.519 74.301 161.52C74.2994 161.52 74.2983 161.521 74.2977 161.521C74.2973 161.521 74.2972 161.521 74.297 161.521C74.2969 161.521 74.297 161.521 74.5 162.5ZM60.5875 133.909L73.5875 162.909L75.4125 162.091L62.4125 133.091L60.5875 133.909ZM63.713 115.883C61.4304 118.795 60.6737 123.32 60.4424 126.926C60.3247 128.761 60.34 130.424 60.3846 131.627C60.4069 132.229 60.4366 132.718 60.4609 133.058C60.473 133.228 60.4838 133.362 60.4917 133.453C60.4956 133.499 60.4988 133.534 60.5011 133.559C60.5022 133.571 60.5031 133.58 60.5037 133.587C60.5041 133.59 60.5043 133.593 60.5045 133.595C60.5046 133.596 60.5047 133.597 60.5047 133.597C60.5048 133.598 60.5048 133.598 60.5048 133.598C60.5049 133.598 60.5049 133.599 61.5 133.5C62.4951 133.401 62.4951 133.402 62.4951 133.402C62.4951 133.402 62.4952 133.402 62.4951 133.402C62.4951 133.402 62.4951 133.401 62.4951 133.401C62.495 133.4 62.4948 133.398 62.4946 133.396C62.4942 133.391 62.4935 133.384 62.4925 133.374C62.4907 133.354 62.4879 133.323 62.4843 133.282C62.4772 133.199 62.4672 133.076 62.4558 132.916C62.4329 132.596 62.4046 132.13 62.3832 131.553C62.3404 130.398 62.326 128.805 62.4383 127.054C62.6673 123.485 63.4106 119.511 65.287 117.117L63.713 115.883ZM78 109.5C77.7699 108.527 77.7697 108.527 77.7694 108.527C77.7693 108.527 77.769 108.527 77.7687 108.527C77.7682 108.527 77.7675 108.527 77.7667 108.528C77.765 108.528 77.7627 108.529 77.7599 108.529C77.7542 108.531 77.7462 108.533 77.7358 108.535C77.7152 108.54 77.6853 108.547 77.6468 108.557C77.5698 108.576 77.458 108.605 77.3155 108.642C77.0304 108.717 76.6217 108.829 76.1209 108.978C75.1205 109.275 73.7465 109.722 72.2528 110.319C69.317 111.492 65.7207 113.322 63.713 115.883L65.287 117.117C66.943 115.004 70.0967 113.334 72.995 112.176C74.4183 111.607 75.7324 111.18 76.6907 110.895C77.1693 110.753 77.5578 110.646 77.8249 110.576C77.9585 110.541 78.0616 110.515 78.1305 110.498C78.1649 110.489 78.1907 110.483 78.2075 110.479C78.2159 110.477 78.222 110.475 78.2258 110.474C78.2277 110.474 78.229 110.473 78.2297 110.473C78.2301 110.473 78.2303 110.473 78.2304 110.473C78.2304 110.473 78.2304 110.473 78.2304 110.473C78.2303 110.473 78.2301 110.473 78 109.5ZM243.5 200H60.5V202H243.5V200ZM244.5 228V201H242.5V228H244.5ZM60.5 229H243.5V227H60.5V229ZM59.5 201V228H61.5V201H59.5ZM55 258.5H16V260.5H55V258.5ZM56 353V259.5H54V353H56ZM100.301 307.285L54.3007 352.285L55.6993 353.715L101.699 308.715L100.301 307.285ZM100 259.5V308H102V259.5H100ZM140.5 258.5H101V260.5H140.5V258.5ZM141.5 324.5V259.5H139.5V324.5H141.5ZM87.2005 378.214L141.2 325.214L139.8 323.786L85.7995 376.786L87.2005 378.214ZM141.223 433.309L87.2229 376.809L85.7771 378.191L139.777 434.691L141.223 433.309ZM141.5 589.5V434H139.5V589.5H141.5ZM100.221 541.128L139.721 590.128L141.279 588.872L101.779 539.872L100.221 541.128ZM100 451.5V540.5H102V451.5H100ZM54.3129 408.727L100.313 452.227L101.687 450.773L55.6871 407.273L54.3129 408.727ZM56 481.5V408H54V481.5H56ZM15.2 430.1L54.2 482.1L55.8 480.9L16.8 428.9L15.2 430.1ZM15 259.5V429.5H17V259.5H15ZM160.5 259.5V300H162.5V259.5H160.5ZM287.5 258.5H161.5V260.5H287.5V258.5ZM288.5 429.5V259.5H286.5V429.5H288.5ZM162.286 590.119L288.286 430.119L286.714 428.881L160.714 588.881L162.286 590.119ZM160.5 417V589.5H162.5V417H160.5ZM204 416H161.5V418H204V416ZM205 471V417H203V471H205ZM242.693 416.41L203.193 470.41L204.807 471.59L244.307 417.59L242.693 416.41ZM242.5 300V417H244.5V300H242.5ZM161.5 301H243.5V299H161.5V301ZM246.918 187.896L298.918 67.3962L297.082 66.6038L245.082 187.104L246.918 187.896ZM201.661 183.941C209.936 186.923 221.065 188.051 230.05 188.445C234.557 188.643 238.553 188.656 241.423 188.62C242.858 188.602 244.012 188.572 244.808 188.546C245.207 188.533 245.515 188.522 245.725 188.513C245.83 188.509 245.911 188.505 245.965 188.503C245.992 188.501 246.013 188.501 246.027 188.5C246.034 188.5 246.039 188.499 246.043 188.499C246.045 188.499 246.046 188.499 246.047 188.499C246.048 188.499 246.048 188.499 246.048 188.499C246.049 188.499 246.049 188.499 246 187.5C245.951 186.501 245.951 186.501 245.951 186.501C245.951 186.501 245.951 186.501 245.95 186.501C245.95 186.501 245.949 186.501 245.947 186.501C245.944 186.502 245.939 186.502 245.933 186.502C245.92 186.503 245.901 186.504 245.875 186.505C245.823 186.507 245.746 186.51 245.643 186.515C245.439 186.523 245.136 186.535 244.743 186.547C243.959 186.573 242.818 186.603 241.398 186.62C238.556 186.656 234.599 186.642 230.137 186.447C221.185 186.055 210.313 184.933 202.339 182.059L201.661 183.941ZM161.5 154C160.79 154.704 160.79 154.704 160.79 154.704C160.79 154.704 160.791 154.705 160.791 154.705C160.792 154.706 160.793 154.707 160.794 154.709C160.797 154.712 160.802 154.716 160.807 154.722C160.819 154.733 160.835 154.75 160.857 154.771C160.9 154.815 160.965 154.879 161.05 154.963C161.219 155.131 161.468 155.377 161.792 155.692C162.44 156.322 163.384 157.228 164.573 158.336C166.952 160.55 170.315 163.571 174.253 166.8C182.104 173.237 192.34 180.582 201.661 183.941L202.339 182.059C193.359 178.823 183.345 171.668 175.521 165.253C171.622 162.057 168.292 159.065 165.936 156.872C164.758 155.776 163.825 154.88 163.187 154.259C162.868 153.948 162.623 153.707 162.458 153.543C162.376 153.461 162.313 153.399 162.272 153.358C162.251 153.337 162.235 153.321 162.225 153.311C162.22 153.306 162.216 153.302 162.214 153.3C162.212 153.298 162.212 153.297 162.211 153.297C162.211 153.297 162.211 153.296 162.21 153.296C162.21 153.296 162.21 153.296 161.5 154ZM173.093 126.58L160.593 153.58L162.407 154.42L174.907 127.42L173.093 126.58ZM202.982 153.124C196.414 149.507 189.379 142.857 183.944 137.044C181.237 134.149 178.947 131.482 177.334 129.54C176.527 128.569 175.891 127.78 175.456 127.234C175.239 126.961 175.072 126.749 174.96 126.606C174.904 126.535 174.862 126.48 174.834 126.444C174.82 126.426 174.81 126.412 174.803 126.403C174.799 126.399 174.797 126.395 174.795 126.393C174.794 126.392 174.794 126.392 174.793 126.391C174.793 126.391 174.793 126.391 174.793 126.391C174.793 126.391 174.793 126.391 174 127C173.207 127.609 173.207 127.61 173.207 127.61C173.208 127.61 173.208 127.61 173.208 127.611C173.209 127.611 173.209 127.612 173.211 127.614C173.213 127.616 173.215 127.62 173.219 127.625C173.227 127.635 173.238 127.65 173.253 127.669C173.283 127.707 173.327 127.764 173.385 127.838C173.5 127.985 173.67 128.202 173.891 128.48C174.334 129.035 174.979 129.835 175.795 130.818C177.427 132.782 179.744 135.479 182.483 138.41C187.941 144.248 195.156 151.098 202.018 154.876L202.982 153.124ZM230 163C230.198 162.02 230.198 162.02 230.198 162.02C230.198 162.02 230.197 162.02 230.197 162.02C230.197 162.02 230.196 162.019 230.195 162.019C230.193 162.019 230.19 162.018 230.186 162.017C230.178 162.016 230.166 162.013 230.15 162.01C230.117 162.003 230.068 161.993 230.004 161.98C229.874 161.953 229.683 161.913 229.435 161.859C228.939 161.752 228.218 161.594 227.321 161.386C225.527 160.971 223.032 160.36 220.23 159.581C214.605 158.015 207.824 155.79 202.982 153.124L202.018 154.876C207.074 157.66 214.043 159.935 219.694 161.507C222.53 162.296 225.054 162.914 226.87 163.334C227.777 163.545 228.509 163.706 229.014 163.814C229.267 163.869 229.463 163.91 229.596 163.938C229.663 163.952 229.714 163.962 229.749 163.969C229.766 163.973 229.779 163.976 229.788 163.977C229.793 163.978 229.796 163.979 229.798 163.979C229.8 163.98 229.8 163.98 229.801 163.98C229.801 163.98 229.802 163.98 229.802 163.98C229.802 163.98 229.802 163.98 230 163ZM241.066 131.144L229.066 162.644L230.934 163.356L242.934 131.856L241.066 131.144ZM237.675 118.065C239.134 120.196 239.983 123.506 240.457 126.405C240.69 127.832 240.827 129.12 240.904 130.05C240.943 130.514 240.967 130.889 240.982 131.145C240.989 131.273 240.994 131.372 240.997 131.438C240.998 131.471 240.999 131.496 241 131.512C241 131.52 241 131.526 241 131.53C241 131.531 241.001 131.533 241.001 131.533C241.001 131.534 241.001 131.534 241.001 131.534C241.001 131.534 241.001 131.534 241.001 131.534C241.001 131.534 241.001 131.534 242 131.5C242.999 131.466 242.999 131.466 242.999 131.466C242.999 131.466 242.999 131.465 242.999 131.465C242.999 131.465 242.999 131.464 242.999 131.463C242.999 131.462 242.999 131.46 242.999 131.457C242.999 131.452 242.999 131.444 242.998 131.434C242.997 131.415 242.996 131.386 242.995 131.35C242.991 131.276 242.986 131.17 242.979 131.033C242.963 130.76 242.938 130.368 242.897 129.883C242.816 128.915 242.675 127.574 242.431 126.082C241.951 123.144 241.05 119.454 239.325 116.935L237.675 118.065ZM226 109C225.632 109.93 225.632 109.93 225.632 109.93C225.632 109.93 225.632 109.93 225.632 109.93C225.632 109.93 225.632 109.93 225.632 109.93C225.633 109.93 225.634 109.931 225.636 109.931C225.64 109.933 225.645 109.935 225.653 109.938C225.669 109.945 225.693 109.954 225.725 109.968C225.79 109.994 225.886 110.034 226.011 110.086C226.26 110.192 226.622 110.349 227.069 110.553C227.962 110.961 229.186 111.554 230.511 112.296C233.201 113.802 236.147 115.834 237.675 118.065L239.325 116.935C237.518 114.296 234.213 112.077 231.488 110.551C230.104 109.776 228.829 109.158 227.9 108.734C227.434 108.521 227.055 108.356 226.79 108.244C226.657 108.188 226.554 108.146 226.482 108.116C226.446 108.102 226.419 108.09 226.4 108.083C226.39 108.079 226.383 108.076 226.377 108.074C226.375 108.073 226.373 108.072 226.371 108.071C226.37 108.071 226.37 108.071 226.369 108.071C226.369 108.071 226.369 108.07 226.369 108.07C226.368 108.07 226.368 108.07 226 109ZM297.496 66.1362L225.496 108.136L226.504 109.864L298.504 67.8638L297.496 66.1362Z" fill="white" mask="url(#path-1-outside-1_12_55)"/>
</svg>
